<svg xmlns="http://www.w3.org/2000/svg" width="48" height="48" viewBox="0 0 48 48">
    <g fill="none" fill-rule="evenodd">
        <path fill="#FC3A52" fill-opacity=".3" d="M19.132 47.6l-.287-.056C10.587 45.859 2.259 40.199.185 25.973c-2.052-14.084 13.425-3.001 21.529-19.85l.243-.52C29.99-11.99 52.145 16.102 47.32 31.43 42.55 46.582 27.455 49.17 19.132 47.6z"/>
        <g fill="#000" fill-rule="nonzero">
            <path d="M48 3.434c0-1.764-1.435-3.2-3.2-3.2H3.2a3.203 3.203 0 0 0-3.2 3.2 3.197 3.197 0 0 0 2.4 3.087v38.845l2.4-2.4 4.8 4.8 4.8-4.8 4.8 4.8 4.8-4.8 4.8 4.8 4.8-4.8 4.8 4.8 4.8-4.8 2.4 2.4V6.52A3.197 3.197 0 0 0 48 3.434zm-4 38.07l-.8-.8-4.8 4.8-4.8-4.8-4.8 4.8-4.8-4.8-4.8 4.8-4.8-4.8-4.8 4.8-4.8-4.8-.8.8V4.233h40V41.504zm1.6-36.685V2.634H2.4V4.82a1.6 1.6 0 0 1 .8-2.985h41.6a1.6 1.6 0 1 1 .8 2.985z"/>
            <path d="M35.2 32.234h-12a.8.8 0 1 0 0 1.6h12a.8.8 0 1 0 0-1.6zM38.632 32.466a.823.823 0 0 0-.232.568c0 .208.088.416.232.568.152.144.36.232.568.232a.841.841 0 0 0 .568-.232.841.841 0 0 0 .232-.568.823.823 0 0 0-.232-.568.838.838 0 0 0-1.136 0zM39.2 21.034h-12a.8.8 0 1 0 0 1.6h12a.8.8 0 1 0 0-1.6zM39.2 26.634h-8a.8.8 0 1 0 0 1.6h8a.8.8 0 1 0 0-1.6zM22.4 27.434a.8.8 0 0 0 .8.8h1.6a.8.8 0 1 0 0-1.6h-1.6a.8.8 0 0 0-.8.8zM36 16.234a.8.8 0 0 0-.8-.8h-12a.8.8 0 1 0 0 1.6h12a.8.8 0 0 0 .8-.8zM38.632 15.666a.823.823 0 0 0-.232.568c0 .208.088.416.232.568.152.144.36.232.568.232a.826.826 0 0 0 .568-.232.841.841 0 0 0 .232-.568.84.84 0 0 0-.232-.568c-.296-.296-.84-.296-1.136 0zM24.568 22.402a.826.826 0 0 0 .232-.568.823.823 0 0 0-.232-.568c-.296-.296-.832-.296-1.136 0a.823.823 0 0 0-.232.568c0 .216.088.416.232.568.152.144.36.232.568.232a.841.841 0 0 0 .568-.232zM28.568 28.002a.81.81 0 0 0 0-1.136c-.296-.296-.832-.296-1.136 0a.84.84 0 0 0-.232.568c0 .208.088.416.232.568.152.144.36.232.568.232a.841.841 0 0 0 .568-.232zM13.6 17.115v-.88a.8.8 0 1 0-1.6 0v.883a3.988 3.988 0 0 0-2.254 1.334 2.75 2.75 0 0 0-.636 2.082 2.92 2.92 0 0 0 1.107 1.993L12 23.914v4.35a2.397 2.397 0 0 1-1.6-2.252.8.8 0 1 0-1.6 0 4.008 4.008 0 0 0 3.2 3.92v.702a.8.8 0 1 0 1.6 0v-.706a3.993 3.993 0 0 0 2.255-1.334c.489-.58.715-1.319.635-2.084a2.917 2.917 0 0 0-1.107-1.99L13.6 23.132v-4.35a2.397 2.397 0 0 1 1.6 2.252.8.8 0 1 0 1.6 0 4.008 4.008 0 0 0-3.2-3.92zm.8 8.667c.28.217.462.544.498.895.035.328-.06.642-.264.884a2.39 2.39 0 0 1-1.034.7v-3.103l.8.624zm-3.2-4.517a1.314 1.314 0 0 1-.498-.896c-.034-.327.06-.641.264-.883a2.39 2.39 0 0 1 1.034-.7v3.101l-.8-.622z"/>
            <circle cx="32" cy="9.034" r="1"/>
            <circle cx="28.8" cy="9.034" r="1"/>
            <circle cx="35.2" cy="9.034" r="1"/>
            <circle cx="25.6" cy="9.034" r="1"/>
            <circle cx="38.4" cy="9.034" r="1"/>
            <circle cx="16" cy="9.034" r="1"/>
            <circle cx="19.2" cy="9.034" r="1"/>
            <circle cx="22.4" cy="9.034" r="1"/>
            <circle cx="41.6" cy="9.034" r="1"/>
            <circle cx="12.8" cy="9.034" r="1"/>
            <circle cx="9.6" cy="9.034" r="1"/>
            <circle cx="6.4" cy="9.034" r="1"/>
        </g>
    </g>
</svg>
