<svg xmlns="http://www.w3.org/2000/svg" width="48" height="48" viewBox="0 0 48 48">
    <g fill="none" fill-rule="evenodd">
        <path fill="#FC3A52" fill-opacity=".3" d="M19.132 47.6l-.287-.056C10.587 45.859 2.259 40.199.185 25.973c-2.052-14.084 13.425-3.001 21.529-19.85l.243-.52C29.99-11.99 52.145 16.102 47.32 31.43 42.55 46.582 27.455 49.17 19.132 47.6z"/>
        <g fill="#000" fill-rule="nonzero">
            <path d="M46.013 10.57L24.26.07a.702.702 0 0 0-.61 0L1.9 10.57a.702.702 0 0 0-.397.632v25.502c0 .27.154.515.397.632l21.751 10.5a.702.702 0 0 0 .61 0l21.752-10.5a.702.702 0 0 0 .396-.632V11.202a.702.702 0 0 0-.396-.632zM23.956 1.481l20.137 9.721-5.837 2.818a.696.696 0 0 0-.119-.074l-20-9.656 5.82-2.809zm-7.404 3.603L36.66 14.79l-4.119 1.988-20.1-9.703 4.11-1.992zM37.13 16.122v7.35l-3.847 1.857v-7.35l3.847-1.857zm7.876 20.142l-20.348 9.823V22.143l4.854-2.343a.702.702 0 1 0-.61-1.264l-4.946 2.388-1.946-.94a.702.702 0 1 0-.61 1.264l1.854.895v23.944L2.907 36.263V12.32L18.4 19.8a.698.698 0 0 0 .937-.326.702.702 0 0 0-.327-.937L3.82 11.202l6.971-3.365 21.08 10.177.01.012v8.42a.702.702 0 0 0 1.007.633l5.25-2.535a.702.702 0 0 0 .397-.632v-8.467l6.472-3.125v23.944z"/>
            <path d="M8.698 33.542L5.506 32a.702.702 0 1 0-.61 1.264l3.192 1.54a.698.698 0 0 0 .936-.326.702.702 0 0 0-.326-.937zM11.635 31.63L5.51 28.673a.702.702 0 1 0-.61 1.264l6.125 2.957a.7.7 0 0 0 .937-.327.702.702 0 0 0-.327-.937z"/>
        </g>
    </g>
</svg>
