<svg xmlns="http://www.w3.org/2000/svg" width="48" height="48" viewBox="0 0 48 48">
    <g fill="none" fill-rule="evenodd">
        <path fill="#FC3A52" fill-opacity=".3" d="M19.132 47.6l-.287-.056C10.587 45.859 2.259 40.199.185 25.973c-2.052-14.084 13.425-3.001 21.529-19.85l.243-.52C29.99-11.99 52.145 16.102 47.32 31.43 42.55 46.582 27.455 49.17 19.132 47.6z"/>
        <g fill="#000" fill-rule="nonzero">
            <path d="M32.604 23.718h-5.81a3.25 3.25 0 0 0-2.325-2.325V13.14a.813.813 0 1 0-1.628 0v8.252a3.25 3.25 0 0 0-2.44 3.138 3.258 3.258 0 0 0 3.254 3.254 3.251 3.251 0 0 0 3.139-2.44h5.81a.813.813 0 1 0 0-1.627zm-8.949 2.44c-.897 0-1.627-.73-1.627-1.627s.73-1.627 1.627-1.627 1.627.73 1.627 1.627c0 .898-.73 1.627-1.627 1.627z"/>
            <path d="M40.83 7.944l3.333 3.332a.813.813 0 0 0 1.15 0 6.614 6.614 0 0 0 0-9.344 6.615 6.615 0 0 0-9.343 0 .811.811 0 0 0 0 1.15l3.71 3.711-1.382 1.382a21.875 21.875 0 0 0-14.642-5.61 21.875 21.875 0 0 0-14.643 5.61L7.63 6.793l3.711-3.71a.811.811 0 0 0 0-1.15 6.615 6.615 0 0 0-9.344 0 6.614 6.614 0 0 0 0 9.343.813.813 0 0 0 1.15 0L6.48 7.944l1.364 1.363c-3.807 3.952-6.155 9.318-6.155 15.224 0 8.053 4.358 15.103 10.837 18.928l-2.463 2.463a.813.813 0 1 0 1.15 1.15l2.807-2.806a21.83 21.83 0 0 0 9.635 2.231 21.83 21.83 0 0 0 9.635-2.231l2.807 2.807a.811.811 0 0 0 1.15 0 .813.813 0 0 0 0-1.15l-2.463-2.464C41.263 39.634 45.62 32.584 45.62 24.53c0-5.906-2.348-11.272-6.154-15.224l1.364-1.363zm3.332-4.861a4.99 4.99 0 0 1 .528 6.421l-6.948-6.95a4.987 4.987 0 0 1 6.42.529zM2.62 9.503a4.988 4.988 0 0 1 .528-6.42 4.99 4.99 0 0 1 6.42-.528L2.62 9.503zM23.655 44.87c-11.215 0-20.339-9.124-20.339-20.339 0-11.215 9.124-20.339 20.34-20.339 11.214 0 20.338 9.124 20.338 20.34 0 11.214-9.123 20.338-20.339 20.338z"/>
            <path d="M23.655 8.162c.45 0 .814-.364.814-.814v-.813a.813.813 0 1 0-1.628 0v.813c0 .45.365.814.814.814zM23.655 40.704a.813.813 0 0 0-.814.814v.813a.813.813 0 1 0 1.628 0v-.813a.813.813 0 0 0-.814-.814zM40.74 25.246h.813a.813.813 0 1 0 0-1.627h-.813a.813.813 0 1 0 0 1.627zM6.57 23.62h-.813a.813.813 0 1 0 0 1.626h.813a.813.813 0 1 0 0-1.627zM35.736 11.201l-.575.575a.813.813 0 1 0 1.15 1.15l.576-.575a.813.813 0 1 0-1.15-1.15zM11 35.938l-.576.575a.813.813 0 1 0 1.15 1.15l.576-.574a.813.813 0 1 0-1.15-1.15zM36.312 35.938a.813.813 0 1 0-1.15 1.15l.574.576a.811.811 0 0 0 1.15 0 .813.813 0 0 0 0-1.15l-.574-.576zM11.575 11.201a.813.813 0 1 0-1.15 1.15l.574.576a.811.811 0 0 0 1.15 0 .813.813 0 0 0 0-1.15l-.574-.576z"/>
        </g>
    </g>
</svg>
