<svg xmlns="http://www.w3.org/2000/svg" width="651" height="577" viewBox="0 0 651 577">
    <g fill="none" fill-rule="evenodd">
        <path fill="#E3E7F1" fill-opacity=".3" d="M329.778 424.193c87.515-172.515 179.853-184.166 290.2-268.965 110.347-84.8-221.06-184.134-394.201-147.353C52.635 44.655-22.623 212.722 5.892 346.796c28.515 134.074 236.37 249.912 323.886 77.397z"/>
        <path fill="#E3E7F1" fill-opacity=".6" d="M422.284 449.97c33.198-190.621 118.03-228.759 198.688-342.14C701.63-5.55 355.9-3.705 201.199 82.092 46.498 167.89 23.712 350.671 90.154 470.601c66.443 119.928 298.932 169.989 332.13-20.632z"/>
        <path fill="#373331" d="M513.3 67.183l.934 1.095a59.158 59.158 0 0 0 3.06-1.604c2.172-.411 1.398-.187 3.292.58 1.514.613.608 1.314 2.448 1.7 1.337.279 2.468-1.11 3.955-.684l1.3.568c.612 1.36 1.553 1.6 2.821.721 1.496.617 3.514 3.096 5.106 3.015 3.043-.159 2.327-4.35 5.664-4.145 1.237.076 4.436 3.404 5.319 4.393 1.237 1.387.887 2.585 2.437 4.144 2.246 2.26.928 1.048 3.072 2.07 3.196 1.525 4.373.948 5.689 4.618 1.145 3.192 1.787 7.163 1.799 10.545.002.676-.152 1.615-.266 2.544l.037.572-.038-.57c-.242 1.966-.303 3.89 1.685 3.197 2.054-.716 1.71-5.811 3.914-4.213 1.677 1.214-1.63 7.706-1.67 9.229-.11 4.381.59 4.732-2.125 8.007-1.287 1.55-4.235 4.408-4.888 6.417-.773 2.376 1.279 6.492 1.752 8.615 1.026 4.607.159 5.58-2.883 9.201l-.979.587c-1.624-.004-2.075.806-1.352 2.429-.647 1.81-.57 3.553-1.484 5.372-.5.993-2.71 3.005-2.822 3.988-.2 1.753.67 2.06 2.146 3.878 5.947 7.327 8.671 16.822 11.614 25.636 5.182 15.524 11.57 30.665 17.756 45.86 2.41 5.922 4.854 11.61 7.356 17.598 3.114 7.456 7.49 14.263 11.193 21.488 2.558 4.994 5.17 10.477 8.366 14.786 4.023 5.42 6.283 12.388 9.811 18.256 3.768 6.267 8.168 12.443 11.802 18.893 3.475 6.169 7.77 11.816 11.069 18.151 4.12 7.91 8.916 17.414 10.05 26.378.401 3.177 1.65 8.416-.32 11.134-2.041 2.814-7.66 3.99-10.51 1.89 2.711 6.314 4.447 13.35 5.71 20.132l.07.612-.243-2.16.174 1.554c.066.348.13.694.191 1.04.552 3.067 1.322 5.774.647 8.909-.605 2.801.398 1.17-1.863 2.808-1.894 1.372-1.019-2.495-2.507 1.447-.257.682.11 2.355.239 3.467l.004-.327.021-1.62-.042 3.24.017-1.288c.028.243.045.459.04.631-.085 3.874-.374 7.82-.525 11.716-.114 2.956.362 5.45-3.268 5.137-2.91-.25-4.352-3.342-5.644-5.524-.485 3.474-.762 6.941-1.164 10.425-.354 3.09.355 6.144-3.6 5.81-6.487-.546-9.044-12.306-10.687-17.219-2.956 3.895-4.392 11.628-5.692 16.39-1.237 4.535-2.68 14.184-9.004 8.247-4.213-3.955-2.58-11.736-1.825-16.798.25-1.67 3.807-16.342 2.143-17.188-2.378 2.545-5.147 6.703-9.062 4.46-3.52-2.017-2.375-6.498-2.094-9.732.796-9.2 3.953-18.019 6.292-26.935-1.33-.298-4.567-.563-5.664-1.554-1.406-1.27-.54-1.887-1.156-3.51-.835-2.198-2.334-4.431-3.517-6.52-3.857-6.803-5.045-13.585-7.038-20.988-1.924-7.151-5.55-13.445-7.472-20.688a547.263 547.263 0 0 0-6.916-23.9c-5.49-17.457-13.399-34.08-22.491-49.914-1.195-2.079-10.976-24.534-12.449-23.87-1.05.473-1.653 6.284-2.054 7.854-.929 3.636-1.11 7.459-1.33 11.207-3.584 8.74.232 23.824 2.406 32.59 2.542 10.246 7.107 21.225 7.08 31.877-.029 11.071-2.473 21.12-6.952 31.256-2.24 5.072-4.247 10.2-6.793 15.13-1.178 2.284-2.263 5.082-3.893 7.074-2.011 2.457-2.635 2.275-5.026.324l-.094.24c1.097.784 2.494 1.215 1.406 2.448-.696.79-1.866.788-2.842.582l.163-.39c-.908 1.32-2.196 1.978-4.456.835-2.616-1.324-2.56-4.606-3.417-7.044-2.296-6.539-7.203-12.178-10.667-18.134-3.553-6.107-6.55-12.676-10.482-18.547-1.892-2.826-4.146-5.459-6.167-8.203-1.533-2.08-3.873-6.89-6.001-8.11-.282 2.742 2.642 6.735 3.722 9.413a103.764 103.764 0 0 1 3.658 10.782c1.989 7.09 3.19 14.498 4.704 21.705 2.706 12.883 5.897 25.684 7.708 38.76 1.685 12.166 2.133 24.735.853 36.954-.55 5.249-3.625 9.687-5.7 14.467-2.818 6.498-6.243 10.55-11.905 15.16-10.282 8.37-21.665 13.38-34.188 17.115-2.336.697-4.507.394-6.698.867-2.46.53-4.416 1.783-7.089 2.2-6.898 1.08-13.915 2.348-20.575 4.305-5.25 1.542-10.434 3.149-15.627 4.751-3.957 1.221-8.833 2.357-12.643 4.156-9.398 4.441-18.213 9.65-26.933 15.17-2.557 1.62-4.442 2.6-6.328 4.996-2.04 2.59-1.744 4.422-2.857 7.378-1.037 2.758-2.847 4.312-5.308 2.019-2.3-2.144-1.39-6.666-1.577-9.318-.282-4-2.65-19.29-5.402-20.568-1.987-.923-7.796 1.062-10.206 1.327-3.122.343-5.935.335-9.045-.092 1.029 4.281-2.725 10.07-4.302 13.834-2.688 6.42-4.78 12.673-5.895 19.505-.758 4.657-.514 9.334-1.23 14.047-.738 4.864.38 12.49-6.223 13.22-10.482 1.158-13.156-19.82-14.348-26.855-1.87-11.033-.39-21.905.713-32.997.09-.9.547-4.851.14-5.568-.331-.584-3.278-1.593-3.658-1.863-3.322-2.362-1.97-3.619-.98-7.137 1.89-6.724 1.341-15.126 5.882-21.005 3.473-4.499 11.271-1.766 15.764-.552 3.348.905 6.656 2.123 9.91 3.329 2.249.833 4.76 3.327 6.73 3.729 3.93.803 6.825-4.216 9.756-5.994 5.287-3.206 10.803-6.155 16.5-8.304 10.47-3.951 21.304-6.22 32.044-9.545 6.576-2.035 13.07-4.26 19.317-7.2 4.616-2.173 9.271-5.231 14.265-6.703 6.29-1.854 12.674-4.432 18.814-6.994 6.53-2.725 13.675-4.472 20.377-6.68-13.953-20.433-25.876-42.29-35.459-65.12a179.112 179.112 0 0 1-3.144-7.963c-.499-1.365-1.723-7.486-3.02-8.35-2.358-1.569-11.833 5.54-14.472 7.27-9.564 6.269-18.737 13.12-28.701 18.817-8.63 4.933-16.77 10.655-25.023 15.946-4.545 2.914-8.772 6.63-13.393 9.573-4.609 2.934-10.032 8.399-15.492 9.667-2.037.473-5.489-.105-7.548-.272-2.902-.236-6.142-.497-8.965-1.304-5.535-1.58-11.382-3.375-16.79-5.343-9.723-3.537-17.258-12.262-26.022-17.649-10.564-6.493-22.53-8.11-34.336-11.7-12.918-3.926-27.245-4.354-40.879-3.334 0-12.444 6.005-21.778 12.558-31.99-4.72-3.1-6.711-5.032-11.993-2.164-3.92 2.127-7.532 4.04-11.167 6.419-3.948 2.583-8.15 4.566-12.083 7.4-4.274 3.078-8.012 6.345-11.959 9.792-2.968 2.592-6.348 4.949-9.452 7.292-3.066 2.314-6.188 1.98-10.11.402-1.155-.466-4.766-2.09-5.377-2.872-1.232-1.578-.32-2.678.702-4.758 2.366-4.814 5.39-9.7 8.478-14.101 2.757-3.928 6.334-7.209 9.22-11.04 2.741-3.634 4.7-7.855 7.875-11.15 3.55-3.684 7.76-6.642 11.112-10.568 1.672-1.958 3.576-4.045 3.709-6.356.102-1.773-1.872-3.49-1.89-4.763-.043-2.985 5.072-6.022 7.207-8.219 3.134-3.226 6.23-6.013 11.073-4.63 3.554 1.016 8.902 5.498 11.55 8.102 3.332 3.28 6.095 7.074 9.531 10.317 1.933 1.824 3.993 3.488 5.99 5.237 1.18 1.033 3.052 3.998 4.358 4.602 1.167.542 2.307.03 3.94-.014-.736.018 2.986.645 2.787.591 1.762.472 3.5.984 5.236 1.545 7.136 2.306 13.71 6.197 20.148 10.072 16.354 9.842 31.7 20.33 47.716 30.82 4.744 3.105 6.048 2.885 9.69-1.562 3.4-4.15 6.218-8.76 9.41-13.061 5.262-7.088 11.195-13.98 17.407-20.279 6.396-6.48 13.767-11.907 20.602-17.904 1.898-1.665 9.721-7.289 9.227-9.397-.278-1.191-2.807-3.201-3.609-4.42-1.195-1.817-2.434-3.868-3.316-5.873-5.192-11.802 8.283-12.61 16.168-16.258 9.625-4.454 19.154-9.373 28.993-13.349 4.94-1.995 9.886-3.818 14.874-5.669 4.59-1.704 8.771-4.466 13.29-6.346 3.327-1.385 10.557-1.913 12.775-4.86 1.309-1.737.745-7.227.975-9.251.38-3.36.94-6.702 1.818-9.97-1.65-.297-4.746 1.515-6.246 2.212-2.888 1.341-5.402 2.662-8.607 3.505-6.856 1.803-14.035 2.01-20.79 3.966-10.282 2.981-21.244 4.705-31.3 8.982-11.58 4.924-21.55 13.584-29.683 22.932-4.199 4.825-7.537 9.464-10.402 15.191-.743 1.484-1.622 6.455-2.763 7.49-1.453 1.317-5.287-.07-6.938-.342 0 4.387.091 8.78-.066 13.159-.167 4.623.666 11.713-.933 15.978-1.5 4.003-4.3 3.175-7.266 1.184-3.941-2.645-5.963-4.163-9.496-.064-6.146 7.13-8.471 18.205-12.687 26.55-1.381 2.733-4.786 8.456-6.647 2.838-1.356-4.094.893-9.317-.158-13.362-.227.399-.526.922-.88 1.52-.06.417-.192.83-.399 1.24-.063-.101-.12-.2-.172-.3-1.966 3.193-5.084 7.567-7.68 7.552-4.675-.029-3.15-7.292-2.994-10.253-2.054 2.195-7.073 8.097-10.307 7.769l.068-.108c-.665 1.148-1.444-.032-.891-.102l.094.01c-.768-.36-1.387-1.206-1.77-2.716-1.505-5.918 2.695-11.791 5.677-16.45 3.47-5.423 6.88-10.927 10.48-16.256 3.524-5.215 5.882-11.125 9.453-16.373-2.722.377-7.992-.513-6.318-4.729.876-2.204 3.646-1.278 4.999-2.647 1.409-1.425 2.167-5.47 2.956-7.338 3.884-9.204 9.455-16.77 15.897-24.253 11.383-13.224 25.915-23.782 40.568-32.638 17.458-10.551 35.456-16.968 55.004-22.126 9.264-2.444 18.659-3.567 28.022-5.327 1.63-.307 3.271-.557 4.853-.927a6.95 6.95 0 0 0-.767-.079l2.013-.243c1.73-.497 3.364-1.202 4.807-2.358 4.586-3.674 7.61-6.394 13.137-8.739 4.466-1.894 8.705-2.768 13.577-3.578 5.22-.868 11.212.287 16.23-1.188 4.169-1.226 9.028-3.889 12.815-6.02 1.908-1.073 5.286-1.677 6.315-2.59 1.989-1.76 3.304-6.148 4.574-8.512-3.141.823-4.337-1.41-5.178-4.113-1.398-4.496-1.412-3.002-5.776-4.885-2.585-1.115-3.42-4.092-5.47-5.149-2.196-1.134-5.68 1.312-8.275.517-2.104-.646-4.16-2.907-4.045-5.315.047-1.004 1.106-1.896 1.125-2.715.033-1.413-.808-2.36-1.162-3.601l-.044.613.044-.614a3.781 3.781 0 0 1-.13-1.477c.355-3.253 2.006-2.704.604-6.23-1.397-3.509-.852-4.201-.432-7.839.117-1.005-.4-2.625.301-3.48.41-.5 1.908-.577 2.06-.829.572-.943.59-1.717.705-3.446.066-.985-.238-2.955.786-3.683.89-.633 2.153.543 2.931.17.677-.323 1.262-1.933 2.372-2.128 4.102-.718 2.85 3.457 4.946-1.754 1.213-3.018 2.145-4.253 4.322-5.97.946.437 1.535.261 1.77-.53.318-.573.638-1.144.957-1.715 1.697-.402 1.941.87 3.255-.38 2.206-2.097-.063-6.743 4.392-5.5 3.232.902 4.017 5.047 7.398 6.043.466-1.35.405-5.297 2.369-5.696 1.998-.407 3.52 3.237 4.247 4.427.472-1.023 1.255-4.088 2.034-4.837 2.237-2.153 1.56-.067 3.54.22zm-224.577 394.7c0 6.404-.633 11.771-3.271 17.645-.661 1.471-1.991 2.666-1.421 4.466.185.586 1.814.966 2.205 1.506 2.198 3.036 2.552 5.45 2.67 9.236.397 12.718-.992 25.204.697 37.833.707.06 1.186-15.887 1.758-18.082 1.273-4.871 3.492-9.776 5.948-14.156 1.049-1.87 2.921-4.281 3.717-6.2 1.226-2.956-.757-4.975-1.316-8.37-1.192-7.236.388-13.631 2.922-20.342-4.665-1.06-9.165-2.808-13.909-3.536zm-11.406 54.403zm73.594-231.583c-7.653 8.559-15.944 16.697-24.83 23.97-7.321 5.993-13.544 13.776-19.638 20.912-5.726 6.706-10.356 17.136-18.131 21.834-4.534 2.74-7.914 1.006-12.293-1.749-3.475-2.188-7.306-3.38-10.805-5.4-16.153-9.324-31.408-19.854-47.19-29.739-3.452-2.161-8.877-7.246-12.94-7.612-3.009-.271-2.771.482-4.512 2.974-1.687 2.415-3.397 4.814-5.071 7.237-6.562 9.502-13.557 19.309-18.875 29.57 11.577-2.762 22.523-3.187 33.917-1.556 10.481 1.502 23.862 3.314 33.141 8.981 3.964 2.421 7.856 5.14 11.81 7.892 4.963 3.455 8.817 8.285 14.31 10.89 4.739 2.247 9.866 3.264 14.791 4.938 5.535 1.88 13.385 5.383 19.262 3.861 5.008-1.297 9.202-5.74 12.971-8.8 4.906-3.98 10.866-6.703 15.83-10.414 8.796-6.576 17.978-12.195 27.438-18.072 11.296-7.02 22.133-15.086 33.858-21.265 2.306-1.216 4.585-2.058 6.731-3.51 2.017-1.366 3.47-3.864 5.897-2.083 2.158 1.581 1.216 4.495.563 6.524-.612 1.902-1.179 2.51-.784 4.17.368 1.544 2.743 3.913 3.558 5.423 3.854 7.128 6.607 14.781 10.299 21.991 3.593 7.012 7.647 13.758 10.988 20.903 6.594 14.102 15.803 26.599 21.642 41.154-2.69 1.102-3.024-1.167-5.11-1.381-2.281-.236-1.456.198-3.72 1.831-3.037 2.191-6.294 3.576-9.553 5.285-7.254 3.806-14.683 8.283-22.512 10.913-13.448 4.517-25.84 12.501-39.334 17.436-5.344.23-10.787 3.108-15.969 4.416-6.984 1.765-14.313 3.562-20.779 6.726-3.44 1.685-3.473 2.67-2.531 6.51.74 3.018 1.594 5.94 2.217 9.013a465.388 465.388 0 0 0 5.197 22.689c19.905-16.616 45.314-26.012 70.145-32.414 3.512-.906 7.09-1.184 10.653-1.804 3.119-.541 6.673-.155 9.63-.769 1.9-.395 3.618-1.675 5.56-2.125 4.202-.974 9.209-1.052 13.252-2.547 5.41-2 11.462-4.645 16.814-7.37 5.844-2.979 10.546-5.153 11.735-11.557.122-.655.267-1.305.43-1.95h.002c1.095-4.357 2.973-8.516 3.613-12.857.958-6.5-.231-12.276-.631-18.774-.928-15.036-3.115-30.235-6.937-44.902-3.665-14.062-6.281-28.458-8.807-42.713-.493-2.778-1.476-5.338-2.12-8.069-1.074-4.541-3.208-3.377-7.331-3.11-7.711.498-15.865-2.578-22.269-6.732-3.024-1.96-6.845-6.442-10.303-7.405-3.08-.859-6.224 3.303-9.165 4.698-7.026 3.331-15.641 4.233-23.31 4.758-16.728 1.146-29.405-9.743-40.804-20.82zM318.922 471.09c-2.575-.25-4.056-2.099-7.042-1.356-4.25 1.06-3.4 5.715-3.463 9.622-.024 1.534-.615 3.841-.135 5.333.835 2.603.138 1.564 2.724 1.817 3.036.299 6.804-.686 9.932-.855h8.523l-1.466-9.37c-.426-2.727.281-6.562-2.397-7.036-2.218-.393-4.42 2.065-6.676 1.845zm2.035 14.249c-1.798.113-3.595.229-5.393.342l5.393-.342zm5.907-14.407c.018 1.086.034 2.163.05 3.24l-.05-3.24zm45.865-18.937l-1.079.082c.362-.028.72-.057 1.079-.082zm11.68-48.012c.922 5.039-1.706 5.509-6.097 7.864-4.486 2.405-8.966 4.38-13.704 6.322-5.105 2.092-10.455 4.238-15.772 5.764-4.505 1.294-11.45 4.193-16.128 3.764-1.888-.174-3.108.066-3.122-2.213-.014-2.473 2.372-2.325 4.34-2.871 6.025-1.671 11.858-4.181 17.782-6.172 11.156-3.746 22.332-6.91 32.701-12.458zm231.27-28.374c-3.035.873-6.905 1.7-9.698 3.171-2.935 1.547-2.035 3.772-1.978 7.189-.464 3.338-1.062 6.65-1.548 9.981-.343 2.356-1.66 5.768-1.361 8.098 3.464-1.636 7.192-7.121 9.866-1.122 1.594 3.574-.403 10.666-.874 14.512 3.915-.794 3.03-10.415 9.287-7.31 4.81 2.387 1.444 14.519 5.205 15.7 2.598-4.097 2.17-13.393 3.02-18.271.399-2.287-.172-5.358 2.504-5.506 2.317-.13 4.151 3.23 5.248 4.766 1.044-5.575 3.863-10.522 2.633-15.654-.76-3.174-1.54-6.352-2.353-9.514-.48-1.861-.988-7.575-2.607-8.855-3.012-2.381-14.016 1.859-17.343 2.815zm12.118 27.295c.009.718.019 1.439.027 2.16-.01-.72-.02-1.44-.027-2.16zm-411.233-21.343c4.203 1.302 8.583 2.813 12.43 4.935 2.072 1.142 7 3.175 8.172 5.31 1.956 3.563-.233 5.082-3.382 4.496-2.993-.557-6.67-2.261-9.795-3.04-14.306-3.566-28.526-6.24-43.016-7.667-3.466-.342-5.984.056-9.325.659-2.498.45-9.092 3.138-10.969 1.562-6.785-5.694 11.342-10.914 14.571-11.267 13.515-1.996 28.199.95 41.314 5.012zm88.215 11.033c-.724.036-1.44.07-2.158.103l2.158-.103zm299.278-9.127c.019 1.078.035 2.156.05 3.24-.018-1.076-.033-2.158-.05-3.24zm-429.786-7.222l-3.235.406 3.235-.406zm371.827-224.1c-1.86 1.246-4.978 1.071-4.92 3.542.01.485 2.617 3.943 2.903 4.616.577 1.363.932 2.804 1.196 4.257 1.283 7.06-1.294 13.91-2.203 20.845-.881 6.711-1.674 12.206-3.962 18.503-2.477 6.818-6.531 15.143-7.415 22.29 8.082 4.958 12.131 12.241 17.092 20.058 4.948 7.798 9.581 15.78 13.985 23.898 8.762 16.147 15.208 32.186 20.05 49.942 2.183 8.01 5.362 15.785 7.63 23.626 2.098 7.245 2.78 14.617 5.796 21.56.833 1.916 1.477 6.156 3.687 6.833 2.603.797 9.588-2.776 12.22-3.434 8.551-2.134 17.469-2.565 26.237-1.585.512-3.021-2.955-8.981-4.036-11.926-1.785-4.866-3.39-10.056-5.785-14.657-4.124-7.922-8.892-15.63-13.663-23.095-5.056-7.91-9.213-16.396-14.383-24.11-2.386-3.56-5.797-8.364-7.365-12.322-.776-1.955-1.018-2.71-1.953-4.37-.816-1.449-1.769-2.878-2.631-4.311-10.87-18.068-18.898-36.405-25.886-56.1-3.825-10.78-7.022-21.631-10.05-32.665-2.845-10.369-3.384-21.061-6.544-31.395zm-6.923 6.78c-2.433 2.944-5.374 5.51-7.778 8.403-2.451 2.95-1.6 3.182-1.303 7.272.49 6.755-.93 14.602-2.502 21.165-3.28 13.682-9.077 26.108-13.308 39.382-2.174 6.825-3.039 14.52-6.115 20.963-2.758 5.775-6.574 10.91-9.5 16.491-3.206 6.118-6.96 11.894-10.466 17.844-1.661 2.819-3.388 5.579-4.863 8.503-1.241 2.465-2.617 8.407-5.05 9.362 8.563 8.194 15.118 16.587 21.02 26.877 5.135 8.956 13.08 19.009 14.57 29.342 1.988.33 8.39-22.342 9.269-25.56 2.419-8.86 4.652-18.491 3.981-27.732-.706-9.745-3.711-18.304-6.792-27.46-2.602-7.725-3.737-16.39-4.683-24.506-1.086-9.32 2.678-17.692 5.409-26.44 1.261-4.041 1.925-8.177 3.034-12.242 1.165-4.277 3.224-8.155 4.268-12.529 1.934-8.111 4.073-16.082 5.87-24.244 1.712-7.764 6.385-17.006 4.94-24.891zM170.5 280.12c-4.967 5.1-9.458 10.375-14.137 15.724-4.692 5.362-11.217 8.802-15.649 14.339-4.05 5.06-7.09 10.886-10.95 16.111-4.274 5.785-7.81 12.263-11.45 18.47 3.751.687 4.676.764 7.106-2.024 2.011-2.308 3.658-5.086 5.688-7.413 4.72-5.412 9.271-9.82 15.17-14.06 5.765-4.144 13.192-7.77 20.087-9.88 2.69-.821 3.677-.613 5.166-3.074 1.069-1.763 1.458-3.97 2.542-5.775 2.34-3.898 6.038-6.087 9.713-8.558-4.153-4.893-9.13-8.89-13.286-13.86zm21.03 63.762l3.235.345zm86.364-22.57c.777.265 1.064-.238.86-1.51-.778-.346-1.065.156-.86 1.51zm28.913-53.97c-6.803.143-13.643.458-20.36 1.617-3.782.653-6.293.627-8.157 4.167-1.443 2.743-2.572 5.61-3.936 8.394-5.243 10.7-10.848 21.326-17.788 31.04 2.579 2.18 10.81-13.208 13.64-13.12 6.019.187-2.531 15.316-3.055 17.167 2.407-.859 4.684-6.312 5.971-8.425 1.105-1.812 5.161-10.706 7.48-11.255 4.52-1.07 2.514 7.154 1.882 9.083-1.423 4.338-2.813 8.631-4.055 13.027 2.64-1.441 4.6-10.072 5.785-12.891 1.637-3.899 2.95-8.172 5.504-11.581 1.744-2.326 4.612-5.607 7.758-5.77 3.826-.2 5.264 3.879 8.71 4.642.46-8.692-.395-17.429.621-26.095zm-119.514 30.625c-4.117 1.594-7.887 8.791-10.7 12.031 2.169 1.744 4.57 3.311 6.866 4.882 2.37 1.62 1.76 2.193 4.149.267 1.738-1.4 3.13-3.923 4.573-5.644 1.73-2.069 3.931-3.909 5.483-6.119-3.99-.64-7.08-6.69-10.37-5.417zm314.43-14.923c4.839 3.298 4.937 10.669 5.828 16.072-.621 4.282-.714 9.012-2.668 12.925-2.815 5.642-3.37-.402-2.926-3.501.654-4.571 1.008-9.25.682-13.87-.267-3.786-2.688-8.218-.916-11.626zm-26.72 21.97c-.714.581-.452 1.057.783 1.425.734-.562.472-1.038-.783-1.425zm11.311-150.475c-7.923 5.521-16.826 7.608-26.09 10.062-9.395 2.488-19.507 4.07-26.796 11.001-3.916 3.724-5.933 4.856-11.229 5.388-5.428.547-10.908.813-16.307 1.68-9.907 1.594-19.4 4.693-28.917 7.763-19.22 6.205-36.022 16.577-52.686 27.532-7.473 4.914-14.085 10.895-20.86 16.677-8.195 6.995-19.213 16.366-23.291 26.63 11.229-1.016 22.63-4.259 33.528.65.827-9.124 7.014-18 13.048-24.543 5.352-5.802 11.896-11.6 18.444-16.268 15.67-11.169 36.566-14.063 54.808-18.082 9.86-2.173 19.052-3.868 28.416-7.574 2.372-.938 9.289-5.137 10.595-2.636.834 1.6-1.306 3.896-1.839 5.194-.92 2.241-1.445 4.572-1.98 6.94-2.406 10.683-3.905 21.57-6.234 32.28-.342 1.578-.798 8.712-3.633 7.742-1.89-.645-.137-11.538-.274-13.506-24.05 16.473-52.497 26.167-79.429 36.453 7.9 6.87 15.218 14.582 24.569 19.224 4.391 2.18 7.883 5.269 12.86 6.137 4.997.873 10.152.38 15.166.023 5.126-.365 9.764-.425 14.485-2.532 2.032-.906 5.12-1.784 6.856-3.17 1.718-1.375 2.8-3.602 4.312-5.259 6.2-6.794 13.06-12.215 21.193-16.315 9.067-4.572 14.083-9.763 14.764-20.222.761-11.71-.243-23.649 1.483-35.286 1.567-10.56 4.699-21.846 9.445-31.412 2.44-4.917 5.445-9.56 8.871-13.843 1.529-1.911 3.567-3.189 5.142-4.955 1.86-2.089 1.58-2.656 1.58-5.773zm-382.543-42.85c8.325 3.278-10.504 16.316-12.987 18.401-7.91 6.646-12.517 13.06-12.333 23.691.178 10.337 10.126 15.251 18.447 18.67 4.316 1.775 9.529 3.198 14.35 3.068 5.463-.146 9.179-3.287 14.155-5.13 9.795-3.626 19.844-6.064 29.94-8.507 9.943-2.407 20.758-1.863 30.94-3.435 9.571-1.478 18.515-3.3 27.562-6.785 9.37-3.608 16.596-14.37 26.814-15.503 6.338-.7 3.24 3.79.501 6.094-3.276 2.755-6.834 5.156-10.112 7.921-8.352 7.041-17.1 11.184-27.684 13.868-7.69 1.949-15.979 3.772-24.15 4.935-10.315 1.468-20.698 1.01-30.83 3.684-6 1.583-11.827 3.6-17.487 6.172-2.319 1.054-7.114 2.742-7.544 4.615-.557 2.426 1.383 2.378-.955 4.612-3.937 3.765-9.058 6.427-13.035 10.333-4.429 4.352-8.642 8.572-12.23 13.675-3.559 5.062-6.4 9.968-11.671 13.46-1.747 1.157-4.713 3.186-6.699 3.718-1.827.49-2.662-.26-4.226.758-4.16 2.706-1.668 11.156-2.766 15.34-1.404 5.357-5 9.38-7.24 14.35 3.133-.68 5.32-5.873 6.931-8.323 1.805-2.748 4.092-4.598 6.389-6.973 4.83-4.992 6.108-11.82 11.85-16.52 10.401-8.514 26.569-7.78 35.247-19.192 1.405-1.849 2.726-7.192 4.412-8.355 3.09-2.13 2.828 4.234 2.51 6.123-1.087 6.45-5.06 14.071-10.254 18.142-2.35 1.843-5.639 2.687-7.679 5.08-.5.197-.998.397-1.498.595.298 1.063.46 2.144.485 3.241.047 1.918-.417 3.788-.495 5.722-.194 4.869.882 9.03 1.856 13.694.698 3.331-1.178 10.275.316 12.99 2.954-9.92 6.427-21.38 12.022-30.197 1.322-2.086 3.944-3.808 4.985-5.956l1.484-1.651a14.272 14.272 0 0 1-2.266-2.69c-3.355-7.058 3.996-2.694 6.93-2.095 4.714.964 10.59-1.016 15.486-1.164 4.77-.145 9.476-.304 14.14-1.046 5.036-.8 10.262-2.009 15.19-3.33 4.946-1.33 9.517-4.064 14.326-5.265-4.807-3.289-6.328-7.57-7.991-12.918-1.093-3.516-4.976-12.047-2.532-15.616 2.649-3.87 3.594 2.082 4.453 4.19 1.453 3.565 3.653 9.646 6.346 12.32 1.452 1.443 3.412 1.284 4.71 3.207.953 1.415 1.082 3.37 1.231 5.011.442 4.844-1.47 8.721-3.177 13.131-3.98 10.281-5.587 21.277-10.792 31.059 3.166.303 6.442-.152 9.598-.472 3.65.872 4.954-7.643 5.363-10.279.661-4.274 1.42-7.949 3.719-11.686 1.119-1.818 2.455-3.686 3.906-5.253.846-.913 2.968-2.101 3.41-3.08 1.225-2.708-.198-9.513-.182-12.558.011-1.957-1.267-11.058 1.027-11.693 2.98-.826 3.756 7.474 4.085 9.343.377 2.14.316 4.202.543 6.32.211 1.975 1.286 3.199 1.698 4.515 1.176 3.763-1.618 6.924-3.62 10.314-2.23 3.773-4.642 7.438-6.207 11.557-1.698 4.469-1.589 9.176-2.916 13.7-2.158 7.353-11.209 11.362-18.54 9.205-3.897-1.147-3.077-3.784-4.312-6.821-.468-1.153-1.78-1.794-2.172-3.325-.414-1.62-.035-3.73.283-5.368 1.542-7.925 4.044-16.222 6.46-23.932-13.154 7.253-27.085 12.031-42.234 11.76-7.529-.137-13.014-1.754-18.468 4.686-4.227 4.992-4.221 13.77-5.946 19.977-1.872 6.738-3.56 15.368-7.823 21.006-5.142 6.805-12.162 5.685-12.686-3.389-.447-7.735 3.397-15.066 2.752-22.919-.324-3.95-1.879-7.432-1.783-11.434.082-3.438.756-6.668 1.392-10.054-7.524.913-13.351 4.01-18.696 9.203-5.005 4.861-7.093 10.864-11.225 16.424-3.772 5.073-7.109 12.055-14.553 11.881-9.502-.22-10.1-11.933-6.537-18.193 1.821-3.2 4.351-5.704 6.666-8.522 2.564-3.12 2.866-5.625 3.395-9.61.401-3.038.512-7.052 3.243-9.056 2.456-1.804 5.54-.927 7.812-3.318 2.174-2.285 3.89-5.745 5.843-8.272 2.438-3.154 4.962-6.414 7.13-9.763 4.666-7.21 10.798-12.225 17.261-17.866-.644-.402-1.577-.57-2.653-.615l1.065.018c-.589-.009-1.173-.02-1.756-.03-2.743.01-6.143.627-8.081.318-4.768-.76-10.94-3.034-14.634-6.302-7.67-6.787-11.355-15.615-11.732-25.817-.364-9.8 1.172-21.618 8.446-28.9 3.707-3.712 8.453-6.96 13.136-9.327 3.119-1.576 9.542-5.011 13.148-3.593zm208.008 164.876c.009.719.017 1.438.023 2.16l-.023-2.16zm90.526-21.25c3.614 1.353 7.385 1.99 11.106 2.939 2.525.644 6.194 2.27 3.889 5.786-.417.635-4.138 2.548-4.186 1.33-6.725.72-15.277.094-21.352-3.094-4.212-2.21-6.164-9.455-.048-10.474 3.434-.571 7.555 2.374 10.59 3.512zm124.073 3.973l.096 2.16-.096-2.16zM239.511 76.382c5.985 3.052 6.81 11.585 13.249 14.478 6.36 2.857 13.853-.106 20.542 2.118 1.904.634 6.997 5.093 8.544 5.073 2.055-.029 7.217-4.56 9.16-5.635 4.875-2.698 11.181-5.33 16.613-6.107 3.41-.488 4.522-.838 6.994 1.67 2.768 2.808 3.636 6.279 4.623 9.927 10.503-4.313 21.111-8.339 31.91-11.856 3.43-1.117 5.785-2.545 8.71-4.345 4.19-2.577 6.52-1.384 7.282 3.944.367 2.568.203 4.884-.331 7.036l.05 1.39-.052-1.387c-1.418 5.71-5.443 10.272-9.071 15.373-2.756 3.874-4.638 6.61-9.118 8.588-4.663 2.06-10.276 1.396-15.34 2.943 1.3 1.579 1.985 5.254 3.13 6.364.93.902 5.385.752 6.887 1.54 4.502 2.36 3.967 6.3 1.177 10.196-3.147 4.394-7.799 5.204-12.883 5.587-2.276.17-4.304.202-6.582.041-1.474-.103-6.604-1.692-7.715-1.221-1.316.556-1.622 3.451-2.22 4.774-.952 2.101-2.011 4.228-4.251 5.2-1.939.839-4.124.612-5.887-.54-2.362-1.544-1.714-3.367-3.202-5.349-.14-2.087-1.032-2.483-2.677-1.188-1.255.438-2.51.881-3.762 1.328-2.59.942-5.01 1.85-7.29 3.43-4.367 3.028-7.011 8.136-11.878 10.264 3.176 5.414 1.192 12.78-4.152 15.591-1.205.633-2.68 1.412-3.96 1.823-.954.306-3.45.058-4.094.589-.933.77-1.446 8.064-2.1 9.689-2.246 5.587-7.018 8.367-9.842 13.434-2.755 4.946-2.163 12.621-2.965 18.191-.993 6.9-1.624 14.142-4.586 20.545-1.981 4.283-7.926 9.362-13.175 8.517-7.718-1.24-4.362-11.076-1.995-15.314 3.65-6.537 3.646-11.483 2.72-18.714-3.047.451-10.596 3.425-10.233-2.367.249-3.95 8.798-7.571 11.794-9.555 6.773-4.484 13.705-9.701 19.424-15.446 2.364-2.375 5.748-6.76 6.951-10.009.876-2.37.688-4.675.879-7.154.175-2.28 2.182-5.414 2.082-7.407-.147-2.957-7.953-7.682-10.185-10.813-3.18-4.46-5.853-9.735-7.84-14.826-2.107-3.968-.725-7.76 2.403-9.865 4.513-3.037 9.056-6.364 13.48-9.728-7.52-1.176-12.911-3.657-19.043-8.233-7.076-5.28-9.09-10.16-8.891-19.078.1-4.476-.528-17.2 6.716-13.506zm-2.271 136.085c-.6 2.308 1.47 6.01 1.72 8.41.373 3.55-.022 6.81-.613 10.306 5.19.722 7.77-22.144 8.044-25.14-2.328-.237-8.603 4.323-9.151 6.424zm249.572-46.233c-1.158 1.766-2.811 3.64-3.657 5.574-1.067 2.444-.932 1.936-.622 4.417.478 3.83 2.385 8.739 4.323 12.1 4.185 7.256 12.411 8.239 19.639 5.787 4.506-.493 8.412-3.225 11.87-6.073 5.667-4.667 6.528-8.323 7.605-15.514-7.269 3.544-12.638 6.475-20.839 6.623-9.388.169-14.003-5.337-18.32-12.914zm-247.973-3.88c2.99 1.738-.358 9.606-.957 11.778-.888 3.223-2.18 11.647-6.6 11.728-2.548-3.41.864-11.044 1.896-14.67.636-2.235 2.58-10.629 5.66-8.837zm-135.277 22.955c.094 0 .188 0 .28.002zm310.64-38.397c2.88 4.332-5.59 5.139-7.72 5.532-9.413 1.732-18.622 4.037-27.75 6.618-18.157 5.135-36.67 11.578-53.581 19.942-2.65 1.31-10.432 6.64-13.082 3.947-3.425-3.478 4.884-7.337 6.787-8.42 8.435-4.805 17.348-9.114 26.402-12.651 17.832-6.967 36.674-12.398 55.773-14.494 2.394-.312 11.59-2.849 13.17-.474zm116.223-20.572c-1.721-.055-3.779 1.828-5.365 2.434-1.943.74-4.095 1.082-6.095 1.633-5.925 1.638-10.674 1.952-16.76 1.224-1.362 1.02-1.544 4.85-2.17 6.441-1.149 2.922-2.778 5.665-4.207 8.456-2.506 4.899-4.587 10.383-4.495 16.003.094 5.777 4.57 9.094 9.949 10.142 5.911 1.151 10.447-1.174 15.642-3.66 5.156-2.469 9.41-6.369 13.51-10.307 3.244-3.117 5.313-8.193 8.992-9.942 3.492-1.66 7.78-3.13 8.83-8.057.719-3.366-.649-2.972-3.6-2.253-3.14.762-5.413 2.781-8.326 3.866 1.621-3.698 2.01-6.733.014-10.357-1.15-2.087-3.306-5.54-5.919-5.623zM265.48 170.767c2.542-.597 10.546-1.468 8.224-6.119-2.35-4.704-8.603 2.904-8.224 6.119zm243.149-6.009c.36.03.722.062 1.078.091-.362-.029-.72-.06-1.078-.09zm7.913-5.172c-1.415 3.65-4.811 4.838-8.405 4.66-2.762-.656-7.279-2.554-3.387-5.232 1.582-1.088 4.698-.566 6.464-1.585 1.07-.617 1.676-1.939 2.748-2.418 3.553-1.589 3.917 1.124 2.58 4.575zm-243.287-2.619l-.103.296c.154.03.175-.085.104-.295l-.001-.001zm-35.251-69.369c0 10.037 9.048 17.946 18.255 21.13 4.688 1.622 11.872-.824 16.013 1.82 1.202.765 3.762 4.255 3.856 5.697.321 4.914-3.19.516-5.18.668-2.764.21-6.61 7.478-8.915 9.688-1.733 1.662-3.69 3.011-5.647 4.44-.645.471-3.961 2.144-4.127 2.953-.145.718 1.673 3.356 2.056 4.036 2.636 4.686 5.812 8.044 9.978 11.349 2.054 1.628 4.192 2.535 6.25 3.888.347.228 1.241 1.326 1.917 2.314.056-.29.179-.635.368-1.036.763.662.876 1.382.339 2.16l-.024-.002c.03.06.056.117.077.17l.035.094.045-.123c1.26-3.377 4.353-7.205 6.44-10.155 2.228-3.151 5.165-6.452 8.9-7.727 1.642-.561 4.359-1.042 6.067-1.18 1.2-.042 2.387.056 3.564.295 1.712.753 2.382.147 2.009-1.822 1.799-3.726.739-8.418 3.026-12.203 2.685-4.445 7.076-6.458 12.108-5.957 2.261.225 4.697 1.193 6.936.798 2.218-.391 4.732-2.177 6.903-2.946 8.433-2.991 18.84-6.626 25.451-12.857 1.004-.944 3.838-3.565 4.06-4.923l-1.769-3.973c-.154-1.94-1.1-2.47-2.84-1.587-2.047-.043-5.93 2.3-7.98 2.971-2.602.852-5.22 1.601-7.779 2.563-4.444 1.668-8.77 3.383-13.435 4.375-4.83 1.027-7.13 1.653-9.672-2.912-2.487-4.462-2.134-7.072-7.92-6.42-5.159.581-9.481 2.522-14.236 4.57-3.158 1.36-7.272 3.864-10.484 4.4-2.38.399-4.948-.526-7.242-1.003-2.896-.6-5.191-.495-8.136-.493-6.25.608-13.242 2.625-18.978-.842-4.65-2.81-6.372-8.737-10.289-12.218zM56.361 118.293c1.891 2.01-4.547 14.808-5.222 17.733-.813 3.527-1.23 7.015-.695 10.62.146.974 2.312 7.158-.428 6.805-3.48-5.788-3.41-13.504-2.447-20.044.324-2.204 5.603-18.501 8.792-15.114zm449.422 22.929l.175-.156c.135-.12.267-.238.396-.356 4.51-3.465 3.897.863 1.513 3.912-.886 1.028-1.774 2.055-2.663 3.082l.78.98c-.135 1.395 1.134 2.426-.422 3.34-2.567 1.508-4.495-2.057-4.483-4.032.012-2.286 1.545-3.977 3.19-5.453-2.945 1.163-2.543-5.892-.43-7.585 4.472-3.586 1.877 4.269 1.944 6.268zm11.176-5.01c3.436.544-.347 8.847-2.792 8.61-.326-1.588-.367-9.11 2.792-8.61zm-193.221-13.18c-2.835 4.564-9.922 2.58-14.217 5.299-3.528 2.234-6.84 11.753-3.453 15.22 4.708 4.818 7.025-5.873 8.362-8.337 2.72-5.013 6.816-8.767 12.752-8.64h2.598l-6.042-3.542zm12.044 9.273c-1.895.135-3.304 1.505-5.226 1.686-3.923.37-6.957-1.3-9.52 2.879 5.454 0 16.363 1.844 20.208-3.14-1.494-.462-3.863-1.54-5.462-1.425zm211.756-4.73c-1.231.112-.536 1.329.195 1.784l-.195-1.785zm-223.345-1.677l3.236.065-3.236-.065zm182.293-12.539c3.931.383 8.733-3.218 12.764-3.81 4.32-.634 8.644-.096 12.983-.107 3.123.497 11.21 7.144 13.492 5.559 3.099-2.152-5.81-8.096-7.635-9.032-8.921-4.573-25.607-.96-31.604 7.39zm-198.43-11.624c.565 1.205 1.845 4.455.305 5.454-1.654 1.073-1.3-.486-2.66-.72-1.622-.281-1.092-1.065-2.976-.213-1.339.605-2.591 2.906-3.516 4.017-3.648-6.442 4.677-17.44 8.846-8.538zM268.106 91.65l-4.314-.04c1.445-.878 2.88-.455 4.314.04z"/>
    </g>
</svg>
