<svg xmlns="http://www.w3.org/2000/svg" width="142" height="23" viewBox="0 0 142 23">
    <g fill="none" fill-rule="evenodd">
        <path fill="#373331" fill-rule="nonzero" d="M.93 11.2c0-1.3.235-2.585.705-3.855A10.48 10.48 0 0 1 3.69 3.94c.9-1 2-1.81 3.3-2.43C8.29.89 9.77.58 11.43.58c1.96 0 3.655.43 5.085 1.29 1.43.86 2.495 1.98 3.195 3.36l-3.18 2.19c-.28-.6-.62-1.105-1.02-1.515-.4-.41-.83-.735-1.29-.975a5.79 5.79 0 0 0-1.44-.525 6.83 6.83 0 0 0-1.47-.165c-1.04 0-1.945.21-2.715.63-.77.42-1.41.965-1.92 1.635a7.21 7.21 0 0 0-1.155 2.28 8.63 8.63 0 0 0-.39 2.535c0 .94.15 1.845.45 2.715.3.87.725 1.635 1.275 2.295.55.66 1.21 1.19 1.98 1.59.77.4 1.615.6 2.535.6.48 0 .98-.06 1.5-.18s1.015-.31 1.485-.57c.47-.26.905-.595 1.305-1.005.4-.41.72-.905.96-1.485l3.39 1.95c-.34.8-.825 1.505-1.455 2.115a9.362 9.362 0 0 1-2.13 1.545c-.79.42-1.635.74-2.535.96-.9.22-1.78.33-2.64.33-1.52 0-2.91-.32-4.17-.96a10.86 10.86 0 0 1-3.255-2.505c-.91-1.03-1.62-2.2-2.13-3.51A10.954 10.954 0 0 1 .93 11.2zm30.87 7.29c.98 0 1.805-.2 2.475-.6.67-.4 1.21-.92 1.62-1.56.41-.64.7-1.375.87-2.205.17-.83.255-1.685.255-2.565V.7h4.11v10.86c0 1.46-.175 2.83-.525 4.11-.35 1.28-.9 2.4-1.65 3.36-.75.96-1.715 1.72-2.895 2.28-1.18.56-2.59.84-4.23.84-1.7 0-3.145-.295-4.335-.885-1.19-.59-2.155-1.37-2.895-2.34-.74-.97-1.275-2.095-1.605-3.375a15.92 15.92 0 0 1-.495-3.99V.7h4.14v10.86c0 .9.085 1.765.255 2.595.17.83.46 1.565.87 2.205.41.64.945 1.155 1.605 1.545.66.39 1.47.585 2.43.585zm30.66-1.98c0 .9-.18 1.69-.54 2.37-.36.68-.855 1.25-1.485 1.71-.63.46-1.36.81-2.19 1.05-.83.24-1.715.36-2.655.36H45.3V.7h11.4c.74 0 1.41.16 2.01.48.6.32 1.11.735 1.53 1.245.42.51.745 1.09.975 1.74.23.65.345 1.305.345 1.965a5.8 5.8 0 0 1-.78 2.925c-.52.91-1.28 1.585-2.28 2.025 1.22.36 2.185 1.005 2.895 1.935.71.93 1.065 2.095 1.065 3.495zm-4.17-.78c0-.38-.065-.745-.195-1.095a3.04 3.04 0 0 0-.525-.915c-.22-.26-.48-.465-.78-.615-.3-.15-.63-.225-.99-.225h-6.36v5.61h6.15c.38 0 .735-.07 1.065-.21.33-.14.615-.335.855-.585.24-.25.43-.545.57-.885.14-.34.21-.7.21-1.08zM49.44 4.24v5.37h5.52c.7 0 1.295-.24 1.785-.72s.735-1.14.735-1.98c0-.82-.225-1.47-.675-1.95a2.192 2.192 0 0 0-1.665-.72h-5.7zM90.57.7l5.31 7.92L101.16.7h4.47l-7.59 10.8 7.35 10.5h-4.47l-5.04-7.62L90.81 22h-4.5l7.35-10.5L86.07.7h4.5zm31.98 17.67V22h-14.79V.7h14.52v3.63H111.9v5.13h8.97v3.36h-8.97v5.55h10.65zm15.93-12.09c-.14-.14-.395-.33-.765-.57-.37-.24-.82-.475-1.35-.705-.53-.23-1.105-.425-1.725-.585-.62-.16-1.25-.24-1.89-.24-1.14 0-1.99.21-2.55.63-.56.42-.84 1.01-.84 1.77 0 .44.105.805.315 1.095.21.29.515.545.915.765.4.22.905.42 1.515.6l.642.183c.449.125.94.254 1.473.387 1.04.28 1.985.58 2.835.9.85.32 1.57.72 2.16 1.2a4.955 4.955 0 0 1 1.365 1.725c.32.67.48 1.495.48 2.475 0 1.14-.215 2.115-.645 2.925a5.419 5.419 0 0 1-1.74 1.965c-.73.5-1.57.865-2.52 1.095-.95.23-1.945.345-2.985.345-1.6 0-3.18-.24-4.74-.72s-2.96-1.16-4.2-2.04l1.83-3.57c.18.18.505.415.975.705s1.025.58 1.665.87c.64.29 1.35.535 2.13.735.78.2 1.58.3 2.4.3 2.28 0 3.42-.73 3.42-2.19 0-.46-.13-.85-.39-1.17-.26-.32-.63-.6-1.11-.84-.48-.24-1.06-.46-1.74-.66l-1.786-.518-.494-.142a19.383 19.383 0 0 1-2.655-.915c-.75-.33-1.375-.72-1.875-1.17-.5-.45-.875-.97-1.125-1.56-.25-.59-.375-1.295-.375-2.115 0-1.08.2-2.04.6-2.88.4-.84.955-1.54 1.665-2.1A7.543 7.543 0 0 1 129.84.985c.94-.29 1.95-.435 3.03-.435 1.5 0 2.88.235 4.14.705 1.26.47 2.36 1.025 3.3 1.665l-1.83 3.36z"/>
        <path fill="#FC3A52" d="M74.79 22.15c-1.56 0-2.975-.305-4.245-.915-1.27-.61-2.36-1.42-3.27-2.43a11.057 11.057 0 0 1-2.115-3.465c-.5-1.3-.75-2.63-.75-3.99 0-1.42.265-2.78.795-4.08.53-1.3 1.26-2.45 2.19-3.45.93-1 2.035-1.795 3.315-2.385C71.99.845 73.38.55 74.88.55c1.54 0 2.945.315 4.215.945 1.27.63 2.355 1.455 3.255 2.475.9 1.02 1.6 2.18 2.1 3.48.5 1.3.75 2.62.75 3.96 0 1.42-.26 2.775-.78 4.065-.52 1.29-1.24 2.43-2.16 3.42-.92.99-2.02 1.78-3.3 2.37-1.28.59-2.67.885-4.17.885z"/>
    </g>
</svg>
