<svg xmlns="http://www.w3.org/2000/svg" xmlns:xlink="http://www.w3.org/1999/xlink" width="24" height="24" viewBox="0 0 24 24">
    <defs>
        <path id="a" d="M21.392 11.675c-.29-.89-1.26-1.364-2.156-1.073l-2.128.707-1.42-4.218 2.128-.708c.895-.29 1.364-1.256 1.078-2.152-.29-.89-1.261-1.364-2.156-1.073l-2.129.708-.736-2.204c-.29-.89-1.26-1.364-2.156-1.073-.895.29-1.364 1.256-1.078 2.152l.736 2.203-4.378 1.462-.736-2.203C5.97 3.313 5 2.84 4.105 3.13c-.896.29-1.364 1.256-1.078 2.151l.735 2.203-2.123.703C.744 8.478.275 9.444.561 10.34c.234.68.895 1.125 1.575 1.153.319.047.562-.075 2.705-.787l1.42 4.218-2.128.708c-.89.29-1.364 1.261-1.078 2.152.234.68.895 1.125 1.575 1.153.318.047.562-.075 2.704-.788l.736 2.204c.277.792 1.158 1.359 2.157 1.073.895-.29 1.364-1.256 1.078-2.152l-.736-2.203 4.387-1.467.736 2.203c.277.792 1.158 1.36 2.156 1.074.896-.29 1.364-1.257 1.079-2.152l-.736-2.203 2.128-.708c.89-.281 1.364-1.251 1.073-2.142zm-11.91 2.212L8.06 9.66l4.383-1.467 1.42 4.228-4.383 1.467z"/>
    </defs>
    <g fill="none" fill-rule="evenodd" transform="translate(1 1)">
        <mask id="b" fill="#fff">
            <use xlink:href="#a"/>
        </mask>
        <g fill="#FFF" mask="url(#b)">
            <path d="M-1-1h24v24H-1z"/>
        </g>
    </g>
</svg>
