<svg xmlns="http://www.w3.org/2000/svg" xmlns:xlink="http://www.w3.org/1999/xlink" width="24" height="24" viewBox="0 0 24 24">
    <defs>
        <path id="a" d="M21.533 5.112c.015.213.015.426.015.64 0 6.502-4.949 13.994-13.995 13.994A13.9 13.9 0 0 1 0 17.538c.396.046.777.061 1.188.061a9.85 9.85 0 0 0 6.106-2.101 4.927 4.927 0 0 1-4.599-3.412c.305.046.61.076.93.076.441 0 .883-.06 1.294-.167A4.92 4.92 0 0 1 .975 7.168v-.061a4.954 4.954 0 0 0 2.223.624 4.915 4.915 0 0 1-2.193-4.096c0-.914.244-1.752.67-2.483A13.981 13.981 0 0 0 11.817 6.3a5.553 5.553 0 0 1-.122-1.126 4.917 4.917 0 0 1 4.92-4.92c1.415 0 2.695.595 3.593 1.554A9.684 9.684 0 0 0 23.33.62a4.905 4.905 0 0 1-2.163 2.711A9.86 9.86 0 0 0 24 2.569a10.573 10.573 0 0 1-2.467 2.543z"/>
    </defs>
    <g fill="none" fill-rule="evenodd" transform="translate(0 2)">
        <mask id="b" fill="#fff">
            <use xlink:href="#a"/>
        </mask>
        <g fill="#FFF" mask="url(#b)">
            <path d="M0-2h24v24H0z"/>
        </g>
    </g>
</svg>
